<svg xmlns="http://www.w3.org/2000/svg" xmlns:xlink="http://www.w3.org/1999/xlink" width="14" height="17" version="1.1" viewBox="0 0 14 17"><title>Electronics</title><desc>Created with Sketch.</desc><g id="Welcome" fill="none" fill-rule="evenodd" stroke="none" stroke-width="1"><g id="Map" fill="#fff" transform="translate(-464.000000, -601.000000)"><g id="Group" transform="translate(453.000000, 592.000000)"><g id="Electronics" transform="translate(11.761905, 9.000000)"><rect id="Rectangle-path" width="5.5" height="1.065" x="3.694" y="1.538"/><path id="Shape" d="M10.7635421,4.13028169 C9.59700436,4.13028169 8.64900008,3.2084507 8.64900008,2.07411972 C8.64900008,0.939788732 9.59700436,0.0179577465 10.7635421,0.0179577465 C11.9300798,0.0179577465 12.8780841,0.939788732 12.8780841,2.07411972 C12.8780841,3.2084507 11.9300798,4.13028169 10.7635421,4.13028169 L10.7635421,4.13028169 Z M10.7635421,1.08045775 C10.2002798,1.08045775 9.74474529,1.52640845 9.74474529,2.07112676 C9.74474529,2.61883803 10.2033577,3.06179577 10.7635421,3.06179577 C11.3268044,3.06179577 11.7823389,2.61584507 11.7823389,2.07112676 C11.7823389,1.52640845 11.3268044,1.08045775 10.7635421,1.08045775 L10.7635421,1.08045775 Z"/><path id="Shape" d="M2.12685376,4.13028169 C0.960316023,4.13028169 0.0123117439,3.2084507 0.0123117439,2.07411972 C0.0123117439,0.939788732 0.960316023,0.0179577465 2.12685376,0.0179577465 C3.29339149,0.0179577465 4.24139577,0.939788732 4.24139577,2.07411972 C4.24447371,3.2084507 3.29339149,4.13028169 2.12685376,4.13028169 L2.12685376,4.13028169 Z M2.12685376,1.08045775 C1.56666941,1.08045775 1.10805695,1.52640845 1.10805695,2.07411972 C1.10805695,2.62183099 1.56666941,3.06478873 2.12685376,3.06478873 C2.6870381,3.06478873 3.14565056,2.61883803 3.14565056,2.07411972 C3.14565056,1.52640845 2.69011604,1.08045775 2.12685376,1.08045775 L2.12685376,1.08045775 Z"/><path id="Shape" d="M10.7635421,16.9850352 C9.59700436,16.9850352 8.64900008,16.0632042 8.64900008,14.9288732 C8.64900008,13.7945423 9.59700436,12.8727113 10.7635421,12.8727113 C11.9300798,12.8727113 12.8780841,13.7945423 12.8780841,14.9288732 C12.8780841,16.0632042 11.9300798,16.9850352 10.7635421,16.9850352 L10.7635421,16.9850352 Z M10.7635421,13.9352113 C10.2002798,13.9352113 9.74474529,14.381162 9.74474529,14.9258803 C9.74474529,15.4735915 10.2033577,15.9165493 10.7635421,15.9165493 C11.3268044,15.9165493 11.7823389,15.4705986 11.7823389,14.9258803 C11.7823389,14.381162 11.3268044,13.9352113 10.7635421,13.9352113 L10.7635421,13.9352113 Z"/><path id="Shape" d="M2.12685376,16.9850352 C0.960316023,16.9850352 0.0123117439,16.0632042 0.0123117439,14.9288732 C0.0123117439,13.7945423 0.960316023,12.8727113 2.12685376,12.8727113 C3.29339149,12.8727113 4.24139577,13.7945423 4.24139577,14.9288732 C4.24447371,16.0632042 3.29339149,16.9850352 2.12685376,16.9850352 L2.12685376,16.9850352 Z M2.12685376,13.9352113 C1.56359147,13.9352113 1.10805695,14.381162 1.10805695,14.9258803 C1.10805695,15.4735915 1.56666941,15.9165493 2.12685376,15.9165493 C2.6870381,15.9165493 3.14565056,15.4705986 3.14565056,14.9258803 C3.14565056,14.381162 2.69011604,13.9352113 2.12685376,13.9352113 L2.12685376,13.9352113 Z"/><path id="Shape" d="M2.12685376,10.556162 C0.960316023,10.556162 0.0123117439,9.63433099 0.0123117439,8.5 C0.0123117439,7.36566901 0.960316023,6.44383803 2.12685376,6.44383803 C3.29339149,6.44383803 4.24139577,7.36566901 4.24139577,8.5 C4.24447371,9.63433099 3.29339149,10.556162 2.12685376,10.556162 L2.12685376,10.556162 Z M2.12685376,7.50933099 C1.56359147,7.50933099 1.10805695,7.95528169 1.10805695,8.5 C1.10805695,9.04771127 1.56666941,9.49066901 2.12685376,9.49066901 C2.6870381,9.49066901 3.14565056,9.04471831 3.14565056,8.5 C3.14565056,7.95228873 2.69011604,7.50933099 2.12685376,7.50933099 L2.12685376,7.50933099 Z"/><path id="Shape" d="M7.62712534,10.556162 C6.46058761,10.556162 5.51258333,9.63433099 5.51258333,8.5 C5.51258333,7.36566901 6.46058761,6.44383803 7.62712534,6.44383803 C8.79366307,6.44383803 9.74166735,7.36566901 9.74166735,8.5 C9.74474529,9.63433099 8.79366307,10.556162 7.62712534,10.556162 L7.62712534,10.556162 Z M7.62712534,7.50933099 C7.06386306,7.50933099 6.60832853,7.95528169 6.60832853,8.5 C6.60832853,9.04771127 7.06694099,9.49066901 7.62712534,9.49066901 C8.19038762,9.49066901 8.64592215,9.04471831 8.64592215,8.5 C8.64900008,7.95228873 8.19038762,7.50933099 7.62712534,7.50933099 L7.62712534,7.50933099 Z"/><rect id="Rectangle-path" width="1.096" height="3.379" x="1.579" y="3.598"/><rect id="Rectangle-path" width="2.367" height="1.065" x="3.694" y="7.967"/><rect id="Rectangle-path" width="1.096" height="3.379" x="1.579" y="10.023"/><rect id="Rectangle-path" width="5.55" height="1.065" x="3.694" y="14.393"/></g></g></g></g></svg>